<?xml version="1.0" encoding="utf-8"?>
<!-- Generator: Adobe Illustrator 26.0.1, SVG Export Plug-In . SVG Version: 6.00 Build 0)  -->
<svg version="1.2" baseProfile="tiny" id="Layer_1" xmlns="http://www.w3.org/2000/svg" xmlns:xlink="http://www.w3.org/1999/xlink"
	 x="0px" y="0px" viewBox="0 0 76 76" overflow="visible" xml:space="preserve">
<path fill="#FFFFFF" d="M38.4,75.8c-0.2,0.2-0.5,0.2-0.7,0L0.2,38.5C0,38.3,0,38,0.2,37.8c0,0,0,0,0,0L37.6,0.3
	c0.2-0.2,0.5-0.2,0.7,0l37.4,37.3c0.2,0.2,0.2,0.5,0,0.7c0,0,0,0,0,0L38.4,75.8z M21,38.6l16.7,16.9c0.2,0.2,0.5,0.2,0.7,0l17-16.9
	c0.3-0.3,0.2-0.4-0.1-0.4h-34C20.8,38.1,20.7,38.3,21,38.6z"/>
</svg>
