<?xml version="1.0" encoding="utf-8"?>
<!-- Generator: Adobe Illustrator 26.0.1, SVG Export Plug-In . SVG Version: 6.00 Build 0)  -->
<svg version="1.2" baseProfile="tiny" id="Layer_1" xmlns="http://www.w3.org/2000/svg" xmlns:xlink="http://www.w3.org/1999/xlink"
	 x="0px" y="0px" viewBox="0 0 423 88" overflow="visible" xml:space="preserve">
<circle fill="#FFFFFF" cx="193.4" cy="8.3" r="8.2" shape-rendering="optimizeQuality" />
<path fill="#FFFFFF" d="M38.3,81.7c-0.2,0.2-0.5,0.2-0.7,0L0.1,44.4c-0.2-0.2-0.2-0.5,0-0.7c0,0,0,0,0,0L37.5,6.1
	c0.2-0.2,0.5-0.2,0.7,0l37.4,37.3c0.2,0.2,0.2,0.5,0,0.7c0,0,0,0,0,0L38.3,81.7z M20.9,44.5l16.7,16.9c0.2,0.2,0.5,0.2,0.7,0
	l17-16.9c0.3-0.3,0.2-0.4-0.1-0.4h-34C20.7,44,20.6,44.2,20.9,44.5z" shape-rendering="optimizeQuality" />
<path fill="#FFFFFF" d="M108.6,64.7c-0.5-0.5-0.8-0.4-0.8,0.3v22.4c0,0.3-0.3,0.6-0.6,0.6h-13c-0.4,0-0.7-0.3-0.7-0.7h0
	c0-11.2,0-22.2,0-33.3c0-8.8,0.5-14.8,1.6-18c3-8.8,9.9-13.9,20.9-15.3c2.6-0.3,5.4-0.2,8.6,0.5c2.9,0.6,5.6,1.6,7.9,3
	c5.8,3.4,9.5,8.2,10.9,14.5c1.3,5.7,0.7,11.3-1.7,16.8c-2.9,6.5-8,10.8-15.4,12.8c-3.4,0.9-6.5,1.2-9.2,0.7
	C113.9,68.5,111,67.1,108.6,64.7z M129.7,43.4c-0.1-5.3-4.4-9.4-9.7-9.4l-2.6,0c-5.3,0.1-9.4,4.4-9.4,9.7l0,2.9
	c0.1,5.3,4.4,9.4,9.7,9.4l2.6,0c5.3-0.1,9.4-4.4,9.4-9.7L129.7,43.4z" shape-rendering="optimizeQuality" />
<path fill="#FFFFFF" d="M151.6,68.8c-0.3,0-0.5-0.2-0.5-0.5c-0.1-7.6-0.1-15.2-0.1-23.1c0-3.9,0.8-7.6,2.3-10.9
	c1.5-3.3,3.8-6.1,6.9-8.4c5.8-4.3,12.6-6,20.4-5c0.4,0,0.7,0.4,0.7,0.8v12.5c0,0.4-0.3,0.7-0.7,0.7c0,0-0.1,0-0.1,0
	c-2.7-0.5-5.2-0.4-7.5,0.1c-2.8,0.6-4.8,2-6.1,4.1c-0.9,1.4-1.4,3.6-1.4,6.7c-0.2,7.1-0.2,14.5-0.1,22.3c0,0.5-0.4,0.9-0.9,0.9
	c0,0,0,0,0,0L151.6,68.8z" shape-rendering="optimizeQuality" />
<path fill="#FFFFFF" d="M213.9,28.6c3.4-3.7,7.6-6.1,12.9-7.1c3.2-0.6,6.3-0.8,9.4-0.6c3.1,0.2,6.1,1,9,2.4
	c9.4,4.4,13.8,12.3,13.2,23.8c-0.4,7-3.1,12.4-8,16.4c-3.1,2.5-6.9,4.2-11.2,5.2c-4.3,0.9-8.5,0.9-12.7-0.2
	c-5.7-1.4-10.2-4.2-13.5-8.4c-3.5-4.4-5.2-9.8-5-16.3C208,37.9,210,32.9,213.9,28.6z M244.3,45c0-6.1-5-11.1-11.1-11.1
	s-11.1,5-11.1,11.1s5,11.1,11.1,11.1S244.3,51.1,244.3,45z" shape-rendering="optimizeQuality" />
<path fill="#FFFFFF" d="M331.1,65.1l0,22.1c0,0.4-0.4,0.8-0.8,0.8h-13.2c-0.3,0-0.5-0.2-0.5-0.5c0-14.2,0.1-28.3,0.2-42.2
	c0.1-12.2,5.7-20.1,16.8-23.5c5.5-1.7,11.4-1.5,17.7,0.6c5.5,1.8,9.5,4.9,12.3,9.4c2.4,3.9,3.5,8.6,3.4,14.1
	c-0.2,9.1-4.2,15.8-12,20.2c-4.1,2.3-8,3.4-11.8,3.3c-4.2-0.1-8.1-1.6-11.7-4.4C331.3,64.7,331.1,64.7,331.1,65.1z M352.7,43.6
	c0-5.3-4.2-9.5-9.5-9.6h0l-2.6,0c-5.3,0-9.5,4.2-9.6,9.5c0,0,0,0,0,0l0,2.9c0,5.3,4.2,9.5,9.5,9.6c0,0,0,0,0,0l2.6,0
	c5.3,0,9.5-4.2,9.6-9.5c0,0,0,0,0,0L352.7,43.6z" shape-rendering="optimizeQuality" />
<path fill="#FFFFFF" d="M422.1,68.7l-12.9-0.1c-0.3,0-0.5-0.2-0.5-0.5c-0.1-6.6-0.2-13.1-0.3-19.7c-0.1-4.8-0.5-7.9-1.3-9.5
	c-1.6-3.4-4.9-5.1-9.8-4.8c-4.2,0.2-6.8,2.1-8,5.8c-0.9,2.8-1.2,6.2-1,10.2c0.2,3.3,0.1,9.4-0.2,18.3c0,0.3-0.2,0.5-0.5,0.5
	l-12.9-0.1c-0.4,0-0.7-0.3-0.7-0.7c-0.1-6.9-0.1-13.7,0.1-20.2c0.1-5.6,0.7-9.8,1.6-12.4c1.6-4.3,4.2-7.7,7.9-10.3
	c4.1-2.8,8.9-4.3,14.4-4.5c5.5-0.2,10.6,1.3,15.1,4.5c3.8,2.6,6.5,6.2,8,10.7c0.9,2.6,1.4,6.8,1.5,12.7c0.1,6.3,0.2,12.8,0.1,19.6
	C422.8,68.4,422.5,68.7,422.1,68.7z" shape-rendering="optimizeQuality" />
<path fill="#FFFFFF" d="M186.6,21h13.5c0.2,0,0.4,0.2,0.4,0.4v46.9c0,0.2-0.2,0.4-0.4,0.4h-13.5c-0.2,0-0.4-0.2-0.4-0.4V21.4
	C186.2,21.2,186.4,21,186.6,21z" shape-rendering="optimizeQuality" />
<path fill="#FFFFFF" d="M284.8,52.7l12.4-31.2c0.1-0.3,0.4-0.5,0.7-0.5l13-0.1c0.2,0,0.5,0.2,0.5,0.5c0,0.1,0,0.1,0,0.2l-19.1,46.6
	c-0.1,0.3-0.4,0.5-0.7,0.5l-12.9,0c-0.7,0-1.3-0.4-1.5-1.1l-18.9-45.9c-0.1-0.3,0-0.6,0.3-0.7c0.1,0,0.1,0,0.2,0h12.7
	c0.5,0,0.9,0.3,1.1,0.8l12,31C284.6,53,284.7,53.1,284.8,52.7z" shape-rendering="optimizeQuality" />
<circle fill="#FFFFFF" cx="193.4" cy="8.2" r="8.2" shape-rendering="optimizeQuality" />
<path fill="#FFFFFF" d="M38.3,81.6c-0.2,0.2-0.5,0.2-0.7,0L0.1,44.3c-0.2-0.2-0.2-0.5,0-0.7c0,0,0,0,0,0L37.5,6
	c0.2-0.2,0.5-0.2,0.7,0l37.4,37.3c0.2,0.2,0.2,0.5,0,0.7c0,0,0,0,0,0L38.3,81.6z M20.9,44.4l16.7,16.9c0.2,0.2,0.5,0.2,0.7,0
	l17-16.9c0.3-0.3,0.2-0.4-0.1-0.4h-34C20.7,43.9,20.6,44.1,20.9,44.4z" shape-rendering="optimizeQuality" />
<path fill="#FFFFFF" d="M108.6,64.6c-0.5-0.5-0.8-0.4-0.8,0.3v22.4c0,0.3-0.3,0.6-0.6,0.6h-13c-0.4,0-0.7-0.3-0.7-0.7h0
	c0-11.2,0-22.2,0-33.3c0-8.8,0.5-14.8,1.6-18c3-8.8,9.9-13.9,20.9-15.3c2.6-0.3,5.4-0.2,8.6,0.5c2.9,0.6,5.6,1.6,7.9,3
	c5.8,3.4,9.5,8.2,10.9,14.5c1.3,5.7,0.7,11.3-1.7,16.8c-2.9,6.5-8,10.8-15.4,12.8c-3.4,0.9-6.5,1.2-9.2,0.7
	C113.9,68.4,111,67,108.6,64.6z M129.7,43.3c-0.1-5.3-4.4-9.4-9.7-9.4l-2.6,0c-5.3,0.1-9.4,4.4-9.4,9.7l0,2.9
	c0.1,5.3,4.4,9.4,9.7,9.4l2.6,0c5.3-0.1,9.4-4.4,9.4-9.7L129.7,43.3z" shape-rendering="optimizeQuality" />
<path fill="#FFFFFF" d="M151.6,68.7c-0.3,0-0.5-0.2-0.5-0.5C151,60.7,151,53,151,45.2c0-3.9,0.8-7.6,2.3-10.9
	c1.5-3.3,3.8-6.1,6.9-8.4c5.8-4.3,12.6-6,20.4-5c0.4,0,0.7,0.4,0.7,0.8v12.5c0,0.4-0.3,0.7-0.7,0.7c0,0-0.1,0-0.1,0
	c-2.7-0.5-5.2-0.4-7.5,0.1c-2.8,0.6-4.8,2-6.1,4.1c-0.9,1.4-1.4,3.6-1.4,6.7c-0.2,7.1-0.2,14.5-0.1,22.3c0,0.5-0.4,0.9-0.9,0.9
	c0,0,0,0,0,0L151.6,68.7z" shape-rendering="optimizeQuality" />
<path fill="#FFFFFF" d="M213.9,28.5c3.4-3.7,7.6-6.1,12.9-7.1c3.2-0.6,6.3-0.8,9.4-0.6c3.1,0.2,6.1,1,9,2.4
	c9.4,4.4,13.8,12.3,13.2,23.8c-0.4,7-3.1,12.4-8,16.4c-3.1,2.5-6.9,4.2-11.2,5.2c-4.3,0.9-8.5,0.9-12.7-0.2
	c-5.7-1.4-10.2-4.2-13.5-8.4c-3.5-4.4-5.2-9.8-5-16.3C208,37.8,210,32.8,213.9,28.5z M244.3,44.9c0-6.1-5-11.1-11.1-11.1
	s-11.1,5-11.1,11.1s5,11.1,11.1,11.1S244.3,51,244.3,44.9z" shape-rendering="optimizeQuality" />
<path fill="#FFFFFF" d="M331.1,65l0,22.1c0,0.4-0.4,0.8-0.8,0.8h-13.2c-0.3,0-0.5-0.2-0.5-0.5c0-14.2,0.1-28.3,0.2-42.2
	c0.1-12.2,5.7-20.1,16.8-23.5c5.5-1.7,11.4-1.5,17.7,0.6c5.5,1.8,9.5,4.9,12.3,9.4c2.4,3.9,3.5,8.6,3.4,14.1
	c-0.2,9.1-4.2,15.8-12,20.2c-4.1,2.3-8,3.4-11.8,3.3c-4.2-0.1-8.1-1.6-11.7-4.4C331.3,64.6,331.1,64.7,331.1,65z M352.7,43.5
	c0-5.3-4.2-9.5-9.5-9.6h0l-2.6,0c-5.3,0-9.5,4.2-9.6,9.5c0,0,0,0,0,0l0,2.9c0,5.3,4.2,9.5,9.5,9.6c0,0,0,0,0,0l2.6,0
	c5.3,0,9.5-4.2,9.6-9.5c0,0,0,0,0,0L352.7,43.5z" shape-rendering="optimizeQuality" />
<path fill="#FFFFFF" d="M422.1,68.6l-12.9-0.1c-0.3,0-0.5-0.2-0.5-0.5c-0.1-6.6-0.2-13.1-0.3-19.7c-0.1-4.8-0.5-7.9-1.3-9.5
	c-1.6-3.4-4.9-5.1-9.8-4.8c-4.2,0.2-6.8,2.1-8,5.8c-0.9,2.8-1.2,6.2-1,10.2c0.2,3.3,0.1,9.4-0.2,18.3c0,0.3-0.2,0.5-0.5,0.5
	l-12.9-0.1c-0.4,0-0.7-0.3-0.7-0.7c-0.1-6.9-0.1-13.7,0.1-20.2c0.1-5.6,0.7-9.8,1.6-12.4c1.6-4.3,4.2-7.7,7.9-10.3
	c4.1-2.8,8.9-4.3,14.4-4.5c5.5-0.2,10.6,1.3,15.1,4.5c3.8,2.6,6.5,6.2,8,10.7c0.9,2.6,1.4,6.8,1.5,12.7c0.1,6.3,0.2,12.8,0.1,19.5
	C422.8,68.3,422.5,68.6,422.1,68.6z" shape-rendering="optimizeQuality" />
<path fill="#FFFFFF" d="M186.6,20.9h13.5c0.2,0,0.4,0.2,0.4,0.4v46.9c0,0.2-0.2,0.4-0.4,0.4h-13.5c-0.2,0-0.4-0.2-0.4-0.4V21.4
	C186.2,21.1,186.4,20.9,186.6,20.9z" shape-rendering="optimizeQuality" />
<path fill="#FFFFFF" d="M284.8,52.7l12.4-31.2c0.1-0.3,0.4-0.5,0.7-0.5l13-0.1c0.2,0,0.5,0.2,0.5,0.5c0,0.1,0,0.1,0,0.2l-19.1,46.6
	c-0.1,0.3-0.4,0.5-0.7,0.5l-12.9,0c-0.7,0-1.3-0.4-1.5-1.1l-18.9-45.9c-0.1-0.3,0-0.6,0.3-0.7c0.1,0,0.1,0,0.2,0h12.7
	c0.5,0,0.9,0.3,1.1,0.8l12,31C284.6,53,284.7,53,284.8,52.7z" shape-rendering="optimizeQuality" />
</svg>
