<?xml version="1.0" encoding="utf-8"?>
<!-- Generator: Adobe Illustrator 26.0.1, SVG Export Plug-In . SVG Version: 6.00 Build 0)  -->
<svg version="1.2" baseProfile="tiny" id="Layer_1" xmlns="http://www.w3.org/2000/svg" xmlns:xlink="http://www.w3.org/1999/xlink"
	 x="0px" y="0px" viewBox="0 0 76 76" overflow="visible" xml:space="preserve">
<path fill="#19252F" d="M38.3,76.1c-0.2,0.2-0.5,0.2-0.7,0L0.1,38.8c-0.2-0.2-0.2-0.5,0-0.7c0,0,0,0,0,0L37.5,0.5
	c0.2-0.2,0.5-0.2,0.7,0l37.4,37.3c0.2,0.2,0.2,0.5,0,0.7c0,0,0,0,0,0L38.3,76.1z M20.9,38.9l16.7,16.9c0.2,0.2,0.5,0.2,0.7,0
	l17-16.9c0.3-0.3,0.2-0.4-0.1-0.4h-34C20.7,38.4,20.6,38.6,20.9,38.9z"/>
</svg>
