<?xml version="1.0" encoding="utf-8"?>
<!-- Generator: Adobe Illustrator 26.0.1, SVG Export Plug-In . SVG Version: 6.00 Build 0)  -->
<svg version="1.1" id="Layer_1" xmlns="http://www.w3.org/2000/svg" xmlns:xlink="http://www.w3.org/1999/xlink" x="0px" y="0px"
	 viewBox="0 0 455 128" style="enable-background:new 0 0 455 128;" xml:space="preserve">
<style type="text/css">
	.st0{fill:#8554A6;}
	.st1{fill:#773094;}
	.st2{fill:#8C3998;}
	.st3{fill:#813596;}
</style>
<g id="slogan" transform="translate(0 0)">
	<path id="path252731" class="st0" d="M74.6,91.1c-0.4,0.4-0.5,0.8-0.5,1.3v20.1c0,1.3,0.2,2.5,0.7,3.5c0.4,1,1.1,1.8,2,2.4
		c0.8,0.6,1.8,0.8,2.9,0.8h0.1c0.7,0,1.3-0.1,1.8-0.5c0.4-0.3,0.7-0.8,0.7-1.3c0-0.5-0.2-1-0.5-1.3c-0.3-0.3-0.7-0.5-1.2-0.5h-0.9
		c-0.6,0-1-0.3-1.3-0.9c-0.4-0.6-0.5-1.3-0.5-2.2V92.5c0-0.5-0.2-1-0.5-1.3c-0.4-0.3-0.8-0.5-1.3-0.5C75.3,90.6,74.9,90.8,74.6,91.1
		L74.6,91.1z"/>
	<path id="path252733" class="st0" d="M82.9,99.7c-0.4,0.4-0.5,0.8-0.5,1.4v16.4c0,0.6,0.1,1,0.5,1.4c0.4,0.4,0.8,0.5,1.4,0.5
		c0.6,0,1-0.1,1.4-0.5c0.3-0.4,0.5-0.8,0.5-1.4v-16.4c0-0.6-0.2-1-0.5-1.4c-0.4-0.3-0.8-0.5-1.4-0.5C83.7,99.2,83.3,99.4,82.9,99.7z
		"/>
	<path id="path252735" class="st0" d="M108.4,104.1c-0.8-1.5-2-2.8-3.4-3.7c-1.4-0.9-3-1.3-4.8-1.3c-1.4,0-2.8,0.3-4,0.9
		c-1.3,0.6-2.3,1.4-3.1,2.5v-9.9c0-0.6-0.2-1-0.6-1.4c-0.4-0.3-0.8-0.5-1.3-0.5c-0.6,0-1,0.2-1.4,0.5c-0.4,0.4-0.5,0.8-0.5,1.4v16.8
		v0.7v7.8c0,0.5,0.1,0.9,0.5,1.2c0.3,0.4,0.7,0.5,1.3,0.5h8.1h0.1h0.1c1.9,0,3.6-0.4,5.2-1.3c1.5-0.9,2.8-2.1,3.7-3.7
		c0.9-1.5,1.3-3.3,1.3-5.2C109.7,107.4,109.2,105.6,108.4,104.1z M105.2,112.8c-0.6,1.1-1.4,1.9-2.4,2.5c-1,0.6-2.1,0.9-3.3,0.9
		c-1.3,0-2.4-0.3-3.3-0.9c-1-0.6-1.8-1.4-2.3-2.5c-0.6-1-0.8-2.2-0.8-3.5c0-1.3,0.3-2.5,0.8-3.5c0.6-1,1.3-1.9,2.3-2.5
		c1-0.6,2.1-0.9,3.3-0.9c1.2,0,2.3,0.3,3.3,0.9c1,0.6,1.8,1.4,2.4,2.5c0.6,1,0.9,2.2,0.9,3.5C106.1,110.6,105.8,111.8,105.2,112.8z"
		/>
	<path id="path252737" class="st0" d="M129.1,110.2c0.3-0.3,0.5-0.7,0.5-1.2c0-1.9-0.4-3.6-1.1-5.2c-0.7-1.5-1.8-2.6-3.2-3.5
		c-1.4-0.8-3-1.3-4.9-1.3c-1.9,0-3.6,0.4-5.2,1.3s-2.7,2.1-3.5,3.6c-0.8,1.5-1.3,3.3-1.3,5.3c0,2,0.4,3.7,1.3,5.3
		c0.9,1.5,2.1,2.8,3.8,3.6c1.6,0.9,3.4,1.3,5.4,1.3c1.1,0,2.3-0.2,3.5-0.6c1.3-0.4,2.3-1,3.1-1.6c0.4-0.3,0.6-0.7,0.6-1.1
		c0-0.4-0.2-0.9-0.7-1.3c-0.3-0.2-0.7-0.4-1.1-0.4c-0.5,0-0.9,0.1-1.2,0.4c-0.5,0.4-1.2,0.7-2,1c-0.8,0.3-1.5,0.4-2.3,0.4
		c-1.9,0-3.5-0.5-4.7-1.6c-1.3-1-2.1-2.4-2.3-4.2h14C128.3,110.6,128.7,110.5,129.1,110.2z M116,103.7c1.1-1,2.6-1.5,4.4-1.5
		c1.6,0,2.9,0.5,3.9,1.5c1,1,1.6,2.3,1.8,3.9h-12.3C114.2,106,114.9,104.7,116,103.7L116,103.7z"/>
	<path id="path252739" class="st0" d="M143.5,99.6c-0.7-0.4-1.8-0.6-3.1-0.6c-1.3,0-2.4,0.3-3.5,0.7c-1.1,0.5-2,1.2-2.7,2v-0.7
		c0-1.2-0.6-1.8-1.8-1.8c-0.6,0-1.1,0.2-1.4,0.5c-0.3,0.3-0.5,0.8-0.5,1.4v16.4c0,0.6,0.1,1.1,0.5,1.4c0.3,0.3,0.8,0.4,1.4,0.4
		s1.1-0.1,1.4-0.5c0.3-0.3,0.5-0.8,0.5-1.4v-10.7c0-1.4,0.5-2.5,1.6-3.3c1.1-0.8,2.5-1.2,4.3-1.2c0.6,0,1.4,0.1,2.4,0.3
		c0.2,0.1,0.4,0.1,0.6,0.1c0.7,0,1.3-0.4,1.5-1.2c0-0.1,0-0.2,0-0.4C144.6,100.5,144.2,100,143.5,99.6L143.5,99.6z"/>
	<path id="path252741" class="st0" d="M145.5,100v3.2v9.1c0,1.4,0.3,2.6,0.8,3.6c0.6,1.1,1.3,2,2.3,2.6c1,0.6,2.1,0.9,3.3,0.9h0.7
		c0.6,0,1.1-0.1,1.5-0.5c0.4-0.3,0.6-0.8,0.6-1.3c0-0.5-0.2-1-0.5-1.3c-0.3-0.3-0.7-0.5-1.1-0.5H152c-0.8,0-1.5-0.3-2-1
		c-0.6-0.7-0.8-1.5-0.8-2.5v-9.1h3.1c0.5,0,0.9-0.1,1.3-0.4c0.3-0.3,0.5-0.7,0.5-1.1c0-0.5-0.2-0.9-0.5-1.2
		c-0.3-0.3-0.7-0.4-1.3-0.4h-3.1v-5.3c0-0.5-0.2-1-0.5-1.3c-0.4-0.3-0.8-0.5-1.3-0.5c-0.6,0-1,0.2-1.3,0.5c-0.4,0.4-0.5,0.8-0.5,1.3
		L145.5,100z"/>
	<path id="path252743" class="st0" d="M172.1,100.9c0-0.7-0.4-1.1-1.1-1.4c-0.3-0.1-0.6-0.2-0.9-0.2c-0.7,0-1.1,0.4-1.4,1.1
		l-5.9,13.4l-6.7-13.4c-0.4-0.7-0.9-1-1.5-1c-0.3,0-0.5,0.1-0.7,0.1c-0.3,0.1-0.6,0.4-0.8,0.6c-0.2,0.3-0.3,0.6-0.3,0.9
		c0,0.3,0,0.6,0.2,0.8l8.3,15.7l-3.7,8.3c-0.1,0.3-0.2,0.6-0.2,0.9c0,0.7,0.4,1.1,1.1,1.4c0.3,0.1,0.6,0.2,0.9,0.2
		c0.7,0,1.1-0.4,1.4-1.1l11.3-25.3C172,101.4,172.1,101.1,172.1,100.9L172.1,100.9z"/>
	<path id="path252745" class="st0" d="M182.8,100v3.2v14.4c0,0.6,0.1,1,0.5,1.4c0.4,0.4,0.8,0.5,1.3,0.5c0.6,0,1.1-0.1,1.4-0.5
		c0.3-0.3,0.5-0.8,0.5-1.4v-14.4h3.8c0.5,0,0.9-0.1,1.3-0.4c0.3-0.3,0.5-0.7,0.5-1.1c0-0.5-0.2-0.9-0.5-1.2
		c-0.3-0.3-0.7-0.4-1.3-0.4h-3.8v-1c0-1.5,0.4-2.7,1.3-3.6c0.8-0.9,1.9-1.4,3.3-1.4c0.5,0,1-0.1,1.3-0.5c0.4-0.3,0.6-0.7,0.6-1.2
		c0-0.5-0.2-0.9-0.6-1.2c-0.4-0.3-0.8-0.5-1.3-0.5c-1.7,0-3.1,0.4-4.3,1.1c-1.3,0.7-2.2,1.7-2.9,3.1c-0.7,1.3-1,2.8-1,4.6V100z"/>
	<path id="path252747" class="st0" d="M205.7,100.4c-1.5-0.9-3.3-1.3-5.2-1.3c-2,0-3.7,0.4-5.3,1.3c-1.5,0.9-2.8,2.1-3.6,3.6
		c-0.9,1.5-1.3,3.3-1.3,5.3c0,2,0.4,3.7,1.3,5.3c0.8,1.5,2.1,2.8,3.6,3.6s3.3,1.3,5.3,1.3c2,0,3.7-0.4,5.2-1.3s2.7-2.1,3.6-3.6
		c0.8-1.5,1.3-3.3,1.3-5.3c0-2-0.4-3.8-1.3-5.3C208.4,102.5,207.3,101.3,205.7,100.4z M197.1,103.3c1-0.6,2.1-0.9,3.4-0.9
		s2.4,0.3,3.3,0.9c1,0.6,1.8,1.4,2.3,2.5c0.6,1.1,0.8,2.2,0.8,3.6c0,1.3-0.3,2.5-0.8,3.6c-0.6,1-1.3,1.8-2.3,2.4
		c-1,0.6-2.1,0.9-3.3,0.9c-1.3,0-2.4-0.3-3.4-0.9c-1-0.6-1.8-1.4-2.3-2.4c-0.6-1-0.8-2.2-0.8-3.6c0-1.3,0.3-2.5,0.8-3.6
		C195.4,104.7,196.2,103.9,197.1,103.3z"/>
	<path id="path252749" class="st0" d="M225.4,99.6c-0.7-0.4-1.8-0.6-3.1-0.6c-1.3,0-2.4,0.3-3.5,0.7c-1.1,0.5-2,1.2-2.7,2v-0.7
		c0-1.2-0.6-1.8-1.8-1.8c-0.6,0-1.1,0.2-1.4,0.5c-0.3,0.3-0.5,0.8-0.5,1.4v16.4c0,0.6,0.1,1.1,0.5,1.4c0.3,0.3,0.8,0.4,1.4,0.4
		s1.1-0.1,1.4-0.5c0.3-0.3,0.5-0.8,0.5-1.4v-10.7c0-1.4,0.5-2.5,1.6-3.3c1.1-0.8,2.5-1.2,4.3-1.2c0.6,0,1.4,0.1,2.4,0.3
		c0.2,0.1,0.4,0.1,0.6,0.1c0.7,0,1.3-0.4,1.5-1.2c0-0.1,0-0.2,0-0.4C226.5,100.5,226.1,100,225.4,99.6L225.4,99.6z"/>
	<path id="path252751" class="st0" d="M255,110.2c0.3-0.3,0.5-0.7,0.5-1.2c0-1.9-0.4-3.6-1.1-5.2c-0.7-1.5-1.8-2.6-3.2-3.5
		c-1.4-0.8-3-1.3-4.9-1.3c-1.9,0-3.6,0.4-5.2,1.3c-1.5,0.9-2.7,2.1-3.5,3.6c-0.8,1.5-1.3,3.3-1.3,5.3c0,2,0.4,3.7,1.3,5.3
		c0.9,1.5,2.1,2.8,3.8,3.6c1.6,0.9,3.4,1.3,5.4,1.3c1.1,0,2.3-0.2,3.5-0.6c1.3-0.4,2.3-1,3.1-1.6c0.4-0.3,0.6-0.7,0.6-1.1
		c0-0.4-0.2-0.9-0.7-1.3c-0.3-0.2-0.7-0.4-1.1-0.4c-0.5,0-0.9,0.1-1.2,0.4c-0.5,0.4-1.2,0.7-2,1c-0.8,0.3-1.5,0.4-2.3,0.4
		c-1.9,0-3.5-0.5-4.7-1.6c-1.3-1-2.1-2.4-2.3-4.2h14C254.2,110.6,254.6,110.5,255,110.2L255,110.2z M241.9,103.7
		c1.1-1,2.6-1.5,4.4-1.5c1.6,0,2.9,0.5,3.9,1.5c1,1,1.6,2.3,1.8,3.9h-12.3C240.1,106,240.8,104.7,241.9,103.7L241.9,103.7z"/>
	<path id="path252753" class="st0" d="M271.9,100.1c-0.2-0.3-0.4-0.5-0.7-0.6c-0.3-0.1-0.6-0.2-0.8-0.2c-0.3,0-0.6,0.1-0.9,0.3
		s-0.5,0.4-0.6,0.7l-6.3,13.8l-6.4-13.8c-0.1-0.3-0.4-0.5-0.6-0.7c-0.3-0.1-0.6-0.3-0.8-0.3c-0.3,0-0.6,0.1-0.8,0.2
		c-0.7,0.4-1,0.8-1,1.5c0,0.3,0,0.5,0.1,0.7l7.8,16.4c0.2,0.4,0.4,0.8,0.7,1c0.3,0.2,0.6,0.3,1,0.3c0.7,0,1.3-0.4,1.7-1.2l7.8-16.4
		c0.1-0.2,0.2-0.5,0.2-0.7C272.2,100.7,272.1,100.4,271.9,100.1L271.9,100.1z"/>
	<path id="path252755" class="st0" d="M289,110.2c0.3-0.3,0.5-0.7,0.5-1.2c0-1.9-0.4-3.6-1.1-5.2c-0.7-1.5-1.8-2.6-3.2-3.5
		c-1.4-0.8-3-1.3-4.9-1.3c-1.9,0-3.6,0.4-5.2,1.3c-1.5,0.9-2.7,2.1-3.5,3.6s-1.3,3.3-1.3,5.3c0,2,0.4,3.7,1.3,5.3
		c0.9,1.5,2.1,2.8,3.8,3.6c1.6,0.9,3.4,1.3,5.4,1.3c1.1,0,2.3-0.2,3.5-0.6c1.3-0.4,2.3-1,3.1-1.6c0.4-0.3,0.6-0.7,0.6-1.1
		c0-0.4-0.2-0.9-0.7-1.3c-0.3-0.2-0.7-0.4-1.1-0.4c-0.5,0-0.9,0.1-1.2,0.4c-0.5,0.4-1.2,0.7-2,1c-0.8,0.3-1.5,0.4-2.3,0.4
		c-1.9,0-3.5-0.5-4.7-1.6c-1.3-1-2.1-2.4-2.3-4.2h14C288.2,110.6,288.6,110.5,289,110.2L289,110.2z M275.9,103.7
		c1.1-1,2.6-1.5,4.4-1.5c1.6,0,2.9,0.5,3.9,1.5c1,1,1.6,2.3,1.8,3.9h-12.3C274.1,106,274.8,104.7,275.9,103.7L275.9,103.7z"/>
	<path id="path252757" class="st0" d="M303.4,99.6c-0.7-0.4-1.8-0.6-3.1-0.6c-1.3,0-2.4,0.3-3.5,0.7c-1.1,0.5-2,1.2-2.7,2v-0.7
		c0-1.2-0.6-1.8-1.8-1.8c-0.6,0-1.1,0.2-1.4,0.5c-0.3,0.3-0.5,0.8-0.5,1.4v16.4c0,0.6,0.1,1.1,0.5,1.4c0.3,0.3,0.8,0.4,1.4,0.4
		c0.6,0,1.1-0.1,1.4-0.5c0.3-0.3,0.5-0.8,0.5-1.4v-10.7c0-1.4,0.5-2.5,1.6-3.3c1.1-0.8,2.5-1.2,4.3-1.2c0.6,0,1.4,0.1,2.4,0.3
		c0.2,0.1,0.4,0.1,0.6,0.1c0.7,0,1.3-0.4,1.5-1.2c0-0.1,0-0.2,0-0.4C304.5,100.5,304.1,100,303.4,99.6L303.4,99.6z"/>
	<path id="path252759" class="st0" d="M321.1,100.9c0-0.7-0.4-1.1-1.1-1.4c-0.3-0.1-0.6-0.2-0.9-0.2c-0.7,0-1.1,0.4-1.4,1.1
		l-5.9,13.4l-6.7-13.4c-0.4-0.7-0.9-1-1.5-1c-0.3,0-0.5,0.1-0.7,0.1c-0.3,0.1-0.6,0.4-0.8,0.6c-0.2,0.3-0.3,0.6-0.3,0.9
		c0,0.3,0,0.6,0.2,0.8l8.3,15.7l-3.7,8.3c-0.1,0.3-0.2,0.6-0.2,0.9c0,0.7,0.4,1.1,1.1,1.4c0.3,0.1,0.6,0.2,0.9,0.2
		c0.7,0,1.1-0.4,1.4-1.1l11.3-25.3C321,101.4,321.1,101.1,321.1,100.9z"/>
	<path id="path252761" class="st0" d="M334.2,100.4c-1.5-0.9-3.3-1.3-5.2-1.3c-2,0-3.7,0.4-5.3,1.3c-1.5,0.9-2.8,2.1-3.6,3.6
		c-0.9,1.5-1.3,3.3-1.3,5.3c0,2,0.4,3.7,1.3,5.3c0.8,1.5,2.1,2.8,3.6,3.6s3.3,1.3,5.3,1.3c2,0,3.7-0.4,5.2-1.3s2.7-2.1,3.6-3.6
		c0.8-1.5,1.3-3.3,1.3-5.3c0-2-0.4-3.8-1.3-5.3C336.9,102.5,335.7,101.3,334.2,100.4z M325.6,103.3c1-0.6,2.1-0.9,3.4-0.9
		c1.3,0,2.4,0.3,3.3,0.9c1,0.6,1.8,1.4,2.3,2.5c0.6,1.1,0.8,2.2,0.8,3.6c0,1.3-0.3,2.5-0.8,3.6c-0.6,1-1.3,1.8-2.3,2.4
		c-1,0.6-2.1,0.9-3.3,0.9c-1.3,0-2.4-0.3-3.4-0.9c-1-0.6-1.8-1.4-2.3-2.4c-0.6-1-0.8-2.2-0.8-3.6c0-1.3,0.3-2.5,0.8-3.6
		C323.8,104.7,324.6,103.9,325.6,103.3z"/>
	<path id="path252763" class="st0" d="M358.7,103.4c-0.8-1.4-1.8-2.5-3.2-3.2c-1.3-0.7-2.7-1-4.2-1.1c0,0-0.1,0-0.1,0h-8.5
		c-0.5,0-0.9,0.2-1.3,0.5c-0.4,0.4-0.5,0.8-0.5,1.3c0,0,0,0.1,0,0.1c0,0.1,0,0.1,0,0.1v16.4c0,0.6,0.1,1,0.5,1.4
		c0.4,0.4,0.8,0.5,1.4,0.5c0.6,0,1-0.1,1.4-0.5c0.3-0.4,0.5-0.8,0.5-1.4v-10.4c0-0.9,0.2-1.7,0.7-2.4c0.5-0.7,1.1-1.3,2-1.7
		c0.8-0.4,1.8-0.6,2.8-0.6c1.8,0,3.2,0.5,4.2,1.5s1.6,2.5,1.6,4.5v9.1c0,0.6,0.1,1,0.5,1.4c0.4,0.4,0.8,0.5,1.4,0.5
		c0.5,0,1-0.1,1.3-0.5c0.4-0.4,0.6-0.8,0.6-1.4v-9.1C359.8,106.5,359.4,104.8,358.7,103.4z"/>
	<path id="path252765" class="st0" d="M379.8,110.2c0.3-0.3,0.5-0.7,0.5-1.2c0-1.9-0.4-3.6-1.1-5.2c-0.7-1.5-1.8-2.6-3.2-3.5
		c-1.4-0.8-3-1.3-4.9-1.3c-1.9,0-3.6,0.4-5.2,1.3c-1.5,0.9-2.7,2.1-3.5,3.6c-0.8,1.5-1.3,3.3-1.3,5.3c0,2,0.4,3.7,1.3,5.3
		s2.1,2.8,3.8,3.6c1.6,0.9,3.4,1.3,5.4,1.3c1.1,0,2.3-0.2,3.5-0.6c1.3-0.4,2.3-1,3.1-1.6c0.4-0.3,0.6-0.7,0.6-1.1
		c0-0.4-0.2-0.9-0.7-1.3c-0.3-0.2-0.7-0.4-1.1-0.4c-0.5,0-0.9,0.1-1.2,0.4c-0.5,0.4-1.2,0.7-2,1c-0.8,0.3-1.5,0.4-2.3,0.4
		c-1.9,0-3.5-0.5-4.7-1.6c-1.3-1-2.1-2.4-2.3-4.2h14C379.1,110.6,379.5,110.5,379.8,110.2L379.8,110.2z M366.8,103.7
		c1.1-1,2.6-1.5,4.4-1.5c1.6,0,2.9,0.5,3.9,1.5c1,1,1.6,2.3,1.8,3.9h-12.3C365,106,365.7,104.7,366.8,103.7L366.8,103.7z"/>
</g>
<g id="title" transform="translate(0 0)">
	
		<g id="path252768" transform="translate(0 292.4436) translate(284.48896625000003 29.62400000000001) scale(1.43) translate(-353.105 50.4)">
		<path class="st1" d="M189.8-246.9c-1.4,2.2-4.3,3-6.6,1.5c-2.3-1.4-3-4.3-1.6-6.6c0.9-1.4,1.4-3.1,1.4-4.6c0-1.9-0.4-7.8-6.2-7.8
			h-13.4v36.1c0,2.6-2.2,4.8-4.8,4.8c-2.6,0-4.8-2.2-4.8-4.8v-40.9c0-2.6,2.2-4.8,4.8-4.8h18.2c10.8,0,15.7,9,15.7,17.4
			C192.6-253.3,191.6-249.8,189.8-246.9z"/>
		<path class="st2" d="M173-239.3c-2.6,0-4.8-2.2-4.8-4.8c0-2.6,2.2-4.8,4.8-4.8c2.7,0,4.8,2.2,4.8,4.8
			C177.8-241.5,175.7-239.3,173-239.3z"/>
	</g>
	
		<g id="path252770" transform="translate(0 292.4436) translate(352.65975465 29.62400000000001) scale(1.43) translate(-400.77688 50.4)">
		<path class="st1" d="M238.8-257.8c0-9.8-6.7-16.1-17-16.1h-15.5c-2.6,0-4.8,2.2-4.8,4.8v40.9c0,2.6,2.2,4.8,4.8,4.8
			c2.7,0,4.8-2.2,4.8-4.8v-13h10.4l2.2,3.5c1.4,2.2,4.3,2.9,6.6,1.4c4.4-2.8,0.9-7.4,0.9-7.4C236.2-246.5,238.8-251.6,238.8-257.8z
			 M221.6-249.5h-10.4v-15.1h10.7c5,0,7.4,3,7.4,7.3C229.3-253.2,227.3-249.5,221.6-249.5z"/>
		<path class="st2" d="M235.6-223.6c-2.6,0-4.8-2.2-4.8-4.8c0-2.7,2.2-4.8,4.8-4.8c2.7,0,4.8,2.2,4.8,4.8
			C240.3-225.7,238.3-223.6,235.6-223.6z"/>
	</g>
	
		<g id="path252772" transform="translate(0 292.4436) translate(423.46887875 27.770719999999997) scale(1.43) translate(-450.29375 51.696)">
		<path class="st2" d="M251.1-270.4c0-2.6,2.2-4.8,4.8-4.8c2.7,0,4.8,2.2,4.8,4.8c0,2.7-2.2,4.8-4.8,4.8
			C253.3-265.6,251.1-267.8,251.1-270.4z"/>
		<path class="st1" d="M251.1-228.2v-27.9c0-2.6,2.2-4.8,4.8-4.8c2.7,0,4.8,2.2,4.8,4.8v27.9c0,2.6-2.2,4.8-4.8,4.8
			C253.3-223.5,251.1-225.6,251.1-228.2z"/>
	</g>
	
		<g id="path252774" transform="translate(0 292.4436) translate(451.67830285 27.770719999999997) scale(1.43) translate(-470.02062 51.696)">
		<path class="st1" d="M297.3-222.2c-14.6,0-26.5-11.9-26.5-26.6c0-8.2,3.7-15.7,10.2-20.8c2-1.6,5-1.2,6.7,0.9c1.6,2,1.2,5-0.9,6.7
			c-4.1,3.2-6.5,8-6.5,13.2c0,9.4,7.6,17,16.9,17c9.4,0,17-7.6,17-17c0-5.3-2.4-10-6.6-13.2c-2.1-1.7-2.4-4.7-0.8-6.7
			c1.6-2.1,4.6-2.4,6.7-0.9c6.5,5.1,10.2,12.6,10.2,20.8C323.9-234.1,312-222.2,297.3-222.2z"/>
		<path class="st2" d="M297.3-275.2c2.7,0,4.8,2.2,4.8,4.8c0,2.6-2.2,4.8-4.8,4.8c-2.6,0-4.8-2.2-4.8-4.8
			C292.6-273,294.7-275.2,297.3-275.2z"/>
	</g>
	<path id="path252776" class="st1" d="M303.9,30.9c1.5-3.5-0.1-7.5-3.5-9.1c-3.5-1.4-7.5,0.1-9,3.5l-11.1,25.7L260.9,6.6
		c-1.5-3.5-5.6-5-9-3.5c-3.5,1.4-5,5.5-3.5,9L274,70.5c1,2.5,3.5,4.1,6.2,4.1c2.8,0,5.3-1.6,6.3-4.1L303.9,30.9z M305.8,2.5
		c-3.7,0-6.8,3.1-6.8,6.8c0,3.8,3.1,6.9,6.8,6.9c3.8,0,6.8-3.1,6.8-6.9C312.6,5.6,309.6,2.5,305.8,2.5z"/>
	<path id="path252778" class="st3" d="M379.8,27.3c0-11.9-7-24.8-22.4-24.8h-26c-3.7,0-6.8,3.1-6.8,6.8v58.5c0,3.7,3.1,6.8,6.8,6.8
		c3.8,0,6.9-3.1,6.9-6.8V16.2h19.2c8.2,0,8.9,8.4,8.9,11.1c0,2.2-0.8,4.5-2.1,6.6c-2,3.2-1,7.4,2.3,9.4c3.2,2.1,7.4,1,9.4-2.2
		C378.4,36.9,379.8,31.9,379.8,27.3z M358.6,45c0-3.7-3-6.8-6.8-6.8c-3.7,0-6.8,3.1-6.8,6.8c0,3.8,3.1,6.9,6.8,6.9
		C355.6,51.9,358.6,48.8,358.6,45z"/>
	<path id="path252780" class="st2" d="M404.9,5.8c-3.2-3.7-6.6-3.9-9.2-2.5c-3.3,1.8-3.6,4.8-3.6,7.4v57c0,3.7,3.1,6.8,6.8,6.8
		c3.8,0,6.9-3.1,6.9-6.8V27l35.7,43.8c1.1,1.3,2,2.3,3.5,3.1c2.9,1.4,5.5,0.5,7.1-0.7c2.1-1.8,2.6-3.8,2.6-6.2V29.7
		c0-3.7-3.1-6.8-6.9-6.8c-3.7,0-6.8,3.1-6.8,6.9v20.4L404.9,5.8z M447.9,2.5c-3.8,0-6.9,3-6.9,6.8c0,3.8,3.1,6.8,6.9,6.8
		c3.7,0,6.8-3,6.8-6.8C454.7,5.5,451.6,2.5,447.9,2.5z"/>
</g>
</svg>
