<?xml version="1.0" encoding="utf-8"?>
<!-- Generator: Adobe Illustrator 26.0.1, SVG Export Plug-In . SVG Version: 6.00 Build 0)  -->
<svg version="1.1" id="Layer_1" xmlns="http://www.w3.org/2000/svg" xmlns:xlink="http://www.w3.org/1999/xlink" x="0px" y="0px"
	 viewBox="0 0 455 76" style="enable-background:new 0 0 455 76;" xml:space="preserve">
<style type="text/css">
	.st0{fill:#6334cd;}
	.st1{fill:#7142db;}
	.st2{fill:#6c32d5;}
</style>
<g id="title" transform="translate(0 0)">
	
		<g id="path584283" transform="translate(0 318.34000000000003) translate(284.48896625000003 29.62400000000001) scale(1.43) translate(-353.105 50.4)">
		<path class="st0" d="M190-265.2c-1.4,2.2-4.3,3-6.6,1.5c-2.3-1.4-3-4.3-1.6-6.6c0.9-1.4,1.4-3.1,1.4-4.6c0-1.9-0.4-7.8-6.2-7.8
			h-13.4v36.1c0,2.6-2.2,4.8-4.8,4.8c-2.6,0-4.8-2.2-4.8-4.8v-40.9c0-2.6,2.2-4.8,4.8-4.8h18.2c10.8,0,15.7,9,15.7,17.4
			C192.8-271.7,191.8-268.2,190-265.2z"/>
		<path class="st1" d="M173.2-257.7c-2.6,0-4.8-2.2-4.8-4.8c0-2.6,2.2-4.8,4.8-4.8c2.7,0,4.8,2.2,4.8,4.8
			C178-259.8,175.9-257.7,173.2-257.7z"/>
	</g>
	
		<g id="path584285" transform="translate(0 318.34000000000003) translate(352.65975465 29.62400000000001) scale(1.43) translate(-400.77688 50.4)">
		<path class="st0" d="M239.1-276.2c0-9.8-6.7-16.1-17-16.1h-15.5c-2.6,0-4.8,2.2-4.8,4.8v40.9c0,2.6,2.2,4.8,4.8,4.8
			c2.7,0,4.8-2.2,4.8-4.8v-13h10.4l2.2,3.5c1.4,2.2,4.3,2.9,6.6,1.4c4.4-2.8,0.9-7.4,0.9-7.4C236.4-264.9,239.1-270,239.1-276.2z
			 M221.8-267.8h-10.4V-283h10.7c5,0,7.4,3,7.4,7.3C229.5-271.6,227.5-267.8,221.8-267.8z"/>
		<path class="st1" d="M235.8-241.9c-2.6,0-4.8-2.2-4.8-4.8c0-2.7,2.2-4.8,4.8-4.8c2.7,0,4.8,2.2,4.8,4.8
			C240.6-244.1,238.5-241.9,235.8-241.9z"/>
	</g>
	
		<g id="path584287" transform="translate(0 318.34000000000003) translate(423.46887875 27.770719999999997) scale(1.43) translate(-450.29375 51.696)">
		<path class="st1" d="M251.3-288.8c0-2.6,2.2-4.8,4.8-4.8c2.7,0,4.8,2.2,4.8,4.8c0,2.7-2.2,4.8-4.8,4.8
			C253.5-284,251.3-286.1,251.3-288.8z"/>
		<path class="st0" d="M251.3-246.6v-27.9c0-2.6,2.2-4.8,4.8-4.8c2.7,0,4.8,2.2,4.8,4.8v27.9c0,2.6-2.2,4.8-4.8,4.8
			C253.5-241.8,251.3-244,251.3-246.6z"/>
	</g>
	
		<g id="path584289" transform="translate(0 318.34000000000003) translate(451.67830285 27.770719999999997) scale(1.43) translate(-470.02062 51.696)">
		<path class="st0" d="M297.6-240.5c-14.6,0-26.5-11.9-26.5-26.6c0-8.2,3.7-15.7,10.2-20.8c2-1.6,5-1.2,6.7,0.9c1.6,2,1.2,5-0.9,6.7
			c-4.1,3.2-6.5,8-6.5,13.2c0,9.4,7.6,17,16.9,17c9.4,0,17-7.6,17-17c0-5.3-2.4-10-6.6-13.2c-2.1-1.7-2.4-4.7-0.8-6.7
			c1.6-2.1,4.6-2.4,6.7-0.9c6.5,5.1,10.2,12.6,10.2,20.8C324.1-252.4,312.2-240.5,297.6-240.5z"/>
		<path class="st1" d="M297.6-293.5c2.7,0,4.8,2.2,4.8,4.8c0,2.6-2.2,4.8-4.8,4.8c-2.6,0-4.8-2.2-4.8-4.8
			C292.8-291.4,295-293.5,297.6-293.5z"/>
	</g>
	<path id="path584291" class="st0" d="M304.2,30.5c1.5-3.5-0.1-7.5-3.5-9.1c-3.5-1.4-7.5,0.1-9,3.5l-11.1,25.7L261.3,6.2
		c-1.5-3.5-5.6-5-9-3.5c-3.5,1.4-5,5.5-3.5,9l25.5,58.5c1,2.5,3.5,4.1,6.2,4.1c2.8,0,5.3-1.6,6.3-4.1L304.2,30.5z M306.2,2.1
		c-3.7,0-6.8,3.1-6.8,6.8c0,3.8,3.1,6.9,6.8,6.9c3.8,0,6.8-3.1,6.8-6.9C313,5.2,310,2.1,306.2,2.1z"/>
	<path id="path584293" class="st2" d="M380.1,26.9c0-11.9-7-24.8-22.4-24.8h-26c-3.7,0-6.8,3.1-6.8,6.8v58.5c0,3.7,3.1,6.8,6.8,6.8
		c3.8,0,6.9-3.1,6.9-6.8V15.8h19.2c8.2,0,8.9,8.4,8.9,11.1c0,2.2-0.8,4.5-2.1,6.6c-2,3.2-1,7.4,2.3,9.4c3.2,2.1,7.4,1,9.4-2.2
		C378.7,36.5,380.1,31.6,380.1,26.9z M358.9,44.6c0-3.7-3-6.8-6.8-6.8c-3.7,0-6.8,3.1-6.8,6.8c0,3.8,3.1,6.9,6.8,6.9
		C355.9,51.5,358.9,48.4,358.9,44.6z"/>
	<path id="path584295" class="st1" d="M405.2,5.4c-3.2-3.7-6.6-3.9-9.2-2.5c-3.3,1.8-3.6,4.8-3.6,7.4v57c0,3.7,3.1,6.8,6.8,6.8
		c3.8,0,6.9-3.1,6.9-6.8V26.6l35.7,43.8c1.1,1.3,2,2.3,3.5,3.1c2.9,1.4,5.5,0.5,7.1-0.7c2.1-1.8,2.6-3.8,2.6-6.2V29.3
		c0-3.7-3.1-6.8-6.9-6.8c-3.7,0-6.8,3.1-6.8,6.9v20.4L405.2,5.4z M448.2,2.1c-3.8,0-6.9,3-6.9,6.8c0,3.8,3.1,6.8,6.9,6.8
		c3.7,0,6.8-3,6.8-6.8C455,5.1,451.9,2.1,448.2,2.1z"/>
</g>
</svg>
